<?xml version="1.0" encoding="UTF-8" standalone="no"?>
<!-- Created with Inkscape (http://www.inkscape.org/) -->

<svg
   width="186.39896mm"
   height="156.07556mm"
   viewBox="0 0 186.39896 156.07556"
   version="1.1"
   id="svg5"
   inkscape:version="1.1 (c68e22c387, 2021-05-23)"
   sodipodi:docname="multiplataforma.svg"
   xmlns:inkscape="http://www.inkscape.org/namespaces/inkscape"
   xmlns:sodipodi="http://sodipodi.sourceforge.net/DTD/sodipodi-0.dtd"
   xmlns="http://www.w3.org/2000/svg"
   xmlns:svg="http://www.w3.org/2000/svg">
  <sodipodi:namedview
     id="namedview7"
     pagecolor="#ffffff"
     bordercolor="#666666"
     borderopacity="1.0"
     inkscape:pageshadow="2"
     inkscape:pageopacity="0.0"
     inkscape:pagecheckerboard="0"
     inkscape:document-units="mm"
     showgrid="false"
     fit-margin-top="0"
     fit-margin-left="0"
     fit-margin-right="0"
     fit-margin-bottom="0"
     inkscape:zoom="0.71446409"
     inkscape:cx="352.71192"
     inkscape:cy="421.99462"
     inkscape:window-width="1920"
     inkscape:window-height="991"
     inkscape:window-x="-9"
     inkscape:window-y="-9"
     inkscape:window-maximized="1"
     inkscape:current-layer="layer1" />
  <defs
     id="defs2" />
  <g
     inkscape:label="Capa 1"
     inkscape:groupmode="layer"
     id="layer1"
     transform="translate(-11.985636,-66.535128)">
    <path
       style="fill:#000000;stroke-width:0.264583"
       d="m 35.883912,222.22948 c -2.35605,-0.73669 -3.90604,-2.13069 -5.01904,-4.51392 l -0.61782,-1.32292 -0.003,-37.46243 -0.003,-37.46243 0.80858,-1.6181 c 0.57275,-1.14618 1.18184,-1.89211 2.08835,-2.55755 2.46186,-1.80717 1.41302,-1.7297 23.41525,-1.7297 22.39587,0 21.33089,-0.0901 23.65661,2.00094 0.76619,0.68888 1.5444,1.72472 1.91976,2.55534 l 0.63124,1.39685 v 37.43854 37.43854 l -0.63018,1.39438 c -0.84685,1.87381 -3.05811,3.88651 -4.85677,4.42065 -1.16284,0.34533 -4.12829,0.40016 -20.82096,0.38498 -15.23416,-0.0138 -19.70515,-0.0928 -20.56985,-0.36317 z m 21.89948,-5.5851 c 2.42337,-1.25317 2.42337,-5.33573 0,-6.5889 -2.37419,-1.22774 -5.04854,0.48853 -5.05093,3.24144 -0.003,2.91968 2.57491,4.62786 5.05093,3.34746 z m 17.04079,-42.71736 v -30.2948 l -18.3224,-0.0679 -18.3224,-0.068 v 30.43071 30.4307 l 18.3224,-0.068 18.3224,-0.0679 z m 9.3927,48.56022 c 0,-0.0677 0.3576,-0.68697 0.79466,-1.37614 1.70276,-2.68497 1.92368,-3.69646 2.05633,-9.41481 l 0.12122,-5.22553 h 25.236808 25.23681 v -44.71554 -44.71554 l -35.5203,0.0671 -35.520318,0.0671 -0.0705,7.07761 -0.0705,7.0776 h -3.9775 -3.9775 l 0.0792,-8.92969 c 0.088,-9.92067 0.05,-9.69629 1.95479,-11.54618 1.91986,-1.86454 -0.84171,-1.74942 41.893958,-1.74655 l 38.51589,0.003 1.37328,0.6394 c 1.68229,0.78326 2.8517,2.29728 3.24667,4.20342 0.19776,0.95441 0.2624,16.81292 0.21317,52.30201 l -0.0706,50.93223 -0.68343,1.45682 c -0.7852,1.67378 -2.09368,3.08942 -3.33498,3.60806 -0.70553,0.29479 -5.92934,0.35908 -29.1783,0.35908 -15.575398,0 -28.318908,-0.0554 -28.318908,-0.12311 z m 20.380188,-5.88402 c 0.92416,-0.63695 1.26663,-1.12515 1.58614,-2.2611 0.92759,-3.29787 -2.80313,-6.09323 -5.31325,-3.98111 -1.515128,1.2749 -1.938758,3.06173 -1.129978,4.76611 0.828788,1.74656 3.352068,2.51339 4.857088,1.4761 z m 45.23648,-2.04791 c 0,-5.83626 0.0106,-5.95069 0.61611,-6.65465 0.496,-0.57663 0.75582,-0.68121 1.33269,-0.53642 0.58822,0.14763 0.93169,0.63103 1.91763,2.69886 0.93916,1.96975 1.44184,2.69657 2.30533,3.33324 1.67171,1.2326 3.93145,2.20496 7.58657,3.26449 4.16404,1.20706 4.49792,1.41346 4.49792,2.78062 v 1.05223 h -9.12813 -9.12812 z M 20.716882,191.68433 c -4.197783,-1.35718 -7.017138,-4.09494 -8.229977,-7.9918 -0.484907,-1.558 -0.501269,-3.33205 -0.501269,-54.3478 0,-51.015758 0.01636,-52.789808 0.501269,-54.347814 1.274777,-4.095869 4.805488,-7.307667 9.023727,-8.208659 1.10152,-0.235277 21.64782,-0.291253 84.534378,-0.230303 l 83.07916,0.08052 1.51468,0.611825 c 3.33894,1.348702 6.10905,4.218165 7.26034,7.520744 0.4646,1.332762 0.4854,3.677047 0.4854,54.705977 v 53.31354 l -0.61363,1.5195 c -1.2952,3.20724 -3.909,5.80309 -7.19762,7.14818 l -1.44917,0.59273 -19.64531,0.0742 -19.64531,0.0743 V 179.09613 165.9928 l 20.30677,-0.0678 20.30677,-0.0678 0.0669,-43.92934 0.0669,-43.929343 -0.59609,-1.182116 c -0.4361,-0.864836 -0.91362,-1.342229 -1.77917,-1.778678 l -1.18308,-0.596564 -82.20741,0.0674 -82.207428,0.0674 -0.74699,0.553495 c -0.41081,0.304437 -1.01485,0.947123 -1.34227,1.428204 l -0.59532,0.874697 v 44.278585 44.27858 h 3.04271 3.04271 v 13.09687 13.09687 l -1.91823,-0.0142 c -1.0772,-0.008 -2.55625,-0.2205 -3.37344,-0.48471 z"
       id="path854" />
  </g>
</svg>
